<?xml version="1.0" encoding="utf-8"?>
<?xml-stylesheet type="text/xsl" href="rss1.xsl"?>
<rss version="2.0" xmlns:atom="http://www.w3.org/2005/Atom" xmlns:content="http://purl.org/rss/1.0/modules/content/" xmlns:dc="http://purl.org/dc/elements/1.1/" xmlns:media="http://search.yahoo.com/mrss/">
<channel>
 <title>Getty</title>
 <link>http://www.gettyimg.com/</link>
 <atom:link href="http://www.gettyimg.com/" rel="self" type="application/rss+xml" />

 
                <item>
                <title><![CDATA[【Interviews / TV shows / Others】HDTV - The Last Last Late Late Show With James Corden (Will Ferrell; Harry Styles) HDTV MPEG2 1080i DD5.1-ilya2129]]></title>
                <link><![CDATA[https://sharemania.us/threads/the-last-last-late-late-show-with-james-corden-will-ferrell-harry-styles-hdtv-mpeg2-1080i-dd5-1-ilya2129.219902/]]></link>
                <description><![CDATA[<article>
<blockquote class="messageText SelectQuoteContainer ugc baseHtml">
<div style="text-align: center"><img src="https://i.postimg.cc/3RHC6WCB/rutrackerposterpng.png" class="bbCodeImage LbImage" alt="[​IMG]" data-url="https://i.postimg.cc/3RHC6WCB/rutrackerposterpng.png" style=""><br>
<br>
<a href="https://postimg.cc/5jVXH76M" target="_blank" class="externalLink" rel="nofollow"><img src="https://i.postimg.cc/5jVXH76M/vlcsnap-2023-04-28-10h16m08s204.png" class="bbCodeImage LbImage" alt="[​IMG]" data-url="https://i.postimg.cc/5jVXH76M/vlcsnap-2023-04-28-10h16m08s204.png"></a> <a href="https://postimg.cc/47bNbGmR" target="_blank" class="externalLink" rel="nofollow"><img src="https://i.postimg.cc/47bNbGmR/vlcsnap-2023-04-28-10h16m09s803.png" class="bbCodeImage LbImage" alt="[​IMG]" data-url="https://i.postimg.cc/47bNbGmR/vlcsnap-2023-04-28-10h16m09s803.png"></a> <a href="https://postimg.cc/SjgmyD9d" target="_blank" class="externalLink" rel="nofollow"><img src="https://i.postimg.cc/SjgmyD9d/vlcsnap-2023-04-28-10h16m12s173.png" class="bbCodeImage LbImage" alt="[​IMG]" data-url="https://i.postimg.cc/SjgmyD9d/vlcsnap-2023-04-28-10h16m12s173.png"></a> <a href="https://postimg.cc/8FL1NGdf" target="_blank" class="externalLink" rel="nofollow"><img src="https://i.postimg.cc/8FL1NGdf/vlcsnap-2023-04-28-10h16m13s719.png" class="bbCodeImage LbImage" alt="[​IMG]" data-url="https://i.postimg.cc/8FL1NGdf/vlcsnap-2023-04-28-10h16m13s719.png"></a> <a href="https://postimg.cc/zVM5hv0R" target="_blank" class="externalLink" rel="nofollow"><img src="https://i.postimg.cc/zVM5hv0R/vlcsnap-2023-04-28-10h16m18s212.png" class="bbCodeImage LbImage" alt="[​IMG]" data-url="https://i.postimg.cc/zVM5hv0R/vlcsnap-2023-04-28-10h16m18s212.png"></a> <a href="https://postimg.cc/HVjdjX4g" target="_blank" class="externalLink" rel="nofollow"><img src="https://i.postimg.cc/HVjdjX4g/vlcsnap-2023-04-28-10h16m21s488.png" class="bbCodeImage LbImage" alt="[​IMG]" data-url="https://i.postimg.cc/HVjdjX4g/vlcsnap-2023-04-28-10h16m21s488.png"></a> <a href="https://postimg.cc/xXw0w8mS" target="_blank" class="externalLink" rel="nofollow"><img src="https://i.postimg.cc/xXw0w8mS/vlcsnap-2023-04-28-10h16m23s423.png" class="bbCodeImage LbImage" alt="[​IMG]" data-url="https://i.postimg.cc/xXw0w8mS/vlcsnap-2023-04-28-10h16m23s423.png"></a> <a href="https://postimg.cc/xXzQ3Q4p" target="_blank" class="externalLink" rel="nofollow"><img src="https://i.postimg.cc/xXzQ3Q4p/vlcsnap-2023-04-28-10h16m26s738.png" class="bbCodeImage LbImage" alt="[​IMG]" data-url="https://i.postimg.cc/xXzQ3Q4p/vlcsnap-2023-04-28-10h16m26s738.png"></a> <br>
<br>
<div class="ToggleTriggerAnchor bbCodeSpoilerContainer">
<button type="button" class="button bbCodeSpoilerButton ToggleTrigger Tooltip JsOnly" data-target="> .SpoilerTarget"><span>Spoiler: <span class="SpoilerTitle">Mediainfo</span></span></button>
<div class="SpoilerTarget bbCodeSpoilerText">General<br>
ID : 1 (0x1)<br>
Complete name : D:\The Last Last Late Late Show With James Corden (Will Ferrell; Harry Styles) HDTV MPEG2 1080i DD5.1-ilya2129.ts<br>
Format : MPEG-TS<br>
File size : 2.80 GiB<br>
Duration : 39 min 21 s<br>
Overall bit rate mode : Variable<br>
Overall bit rate : 10.2 Mb/s<br>
Frame rate : 29.970 FPS<br>
Movie name : The Late Show<br>
Law rating  : TV-14 (DL)<br>
<br>
Video<br>
ID : 302 (0x12E)<br>
Menu ID : 1 (0x1)<br>
Format : MPEG Video<br>
Format version : Version 2<br>
Format profile : Main@High<br>
Format settings : CustomMatrix / BVOP<br>
Format settings, BVOP : Yes<br>
Format settings, Matrix : Custom<br>
Format settings, GOP : Variable<br>
Format settings, picture structure : Frame<br>
Codec ID : 2<br>
Duration : 39 min 21 s<br>
Bit rate mode : Variable<br>
Bit rate : 9 086 kb/s<br>
Maximum bit rate : 17.6 Mb/s<br>
Width : 1 920 pixels<br>
Height : 1 080 pixels<br>
Display aspect ratio : 16:9<br>
Active Format Description : Full frame 16:9 image<br>
Frame rate : 29.970 (30000/1001) FPS<br>
Color space : YUV<br>
Chroma subsampling : 4:2:0<br>
Bit depth : 8 bits<br>
Scan type : Interlaced<br>
Scan order : Top Field First<br>
Compression mode : Lossy<br>
Bits/(Pixel*Frame) : 0.146<br>
Time code of first frame : 12:59:35;23<br>
Time code source : Group of pictures header<br>
GOP, Open/Closed : Open<br>
GOP, Open/Closed of first frame : Closed<br>
Stream size : 2.50 GiB (89%)<br>
<br>
Audio #1<br>
ID : 303 (0x12F)<br>
Menu ID : 1 (0x1)<br>
Format : AC-3<br>
Format/Info : Audio Coding 3<br>
Commercial name : Dolby Digital<br>
Codec ID : 129<br>
Duration : 39 min 21 s<br>
Bit rate mode : Constant<br>
Bit rate : 384 kb/s<br>
Channel(s) : 6 channels<br>
Channel layout : L R C LFE Ls Rs<br>
Sampling rate : 48.0 kHz<br>
Frame rate : 31.250 FPS (1536 SPF)<br>
Compression mode : Lossy<br>
Delay relative to video : 22 ms<br>
Stream size : 108 MiB (4%)<br>
Language : English<br>
Service kind : Complete Main<br>
<br>
Audio #2<br>
ID : 304 (0x130)<br>
Menu ID : 1 (0x1)<br>
Format : AC-3<br>
Format/Info : Audio Coding 3<br>
Commercial name : Dolby Digital<br>
Codec ID : 129<br>
Duration : 39 min 21 s<br>
Bit rate mode : Constant<br>
Bit rate : 192 kb/s<br>
Channel(s) : 2 channels<br>
Channel layout : L R<br>
Sampling rate : 48.0 kHz<br>
Frame rate : 31.250 FPS (1536 SPF)<br>
Compression mode : Lossy<br>
Delay relative to video : 22 ms<br>
Stream size : 54.1 MiB (2%)<br>
Language : Spanish<br>
Service kind  : Complete Main<br>
<br>
Text #1<br>
ID : 302 (0x12E)-CC1<br>
Menu ID : 1 (0x1)<br>
Format : EIA-608<br>
Muxing mode : A/53 / DTVCC Transport<br>
Muxing mode, more info : Muxed in Video #1<br>
Duration : 39 min 21 s<br>
Duration of the visible content : 39 min 10 s<br>
Start time (commands) : 1 s 146 ms<br>
Start time : 7 s 820 ms<br>
End time : 39 min 18 s<br>
Bit rate mode : Constant<br>
Stream size : 0.00 Byte (0%)<br>
Type of the first event : RollUp<br>
<br>
Text #2<br>
ID : 302 (0x12E)-CC3<br>
Menu ID : 1 (0x1)<br>
Format : EIA-608<br>
Muxing mode : A/53 / DTVCC Transport<br>
Muxing mode, more info : Muxed in Video #1<br>
Duration : 39 min 21 s<br>
Start time (commands) : 1 s 146 ms<br>
Start time : 1 s 547 ms<br>
Bit rate mode : Constant<br>
Stream size : 0.00 Byte (0%)<br>
Count of frames before first event : 272<br>
Type of the first event : PaintOn<br>
<br>
Text #3<br>
ID : 302 (0x12E)-1<br>
Menu ID : 1 (0x1)<br>
Format : EIA-708<br>
Muxing mode : A/53 / DTVCC Transport<br>
Muxing mode, more info : Muxed in Video #1<br>
Duration : 39 min 21 s<br>
Bit rate mode : Constant<br>
Stream size : 0.00 Byte (0%)<br>
<br>
Text #4<br>
ID : 302 (0x12E)-2<br>
Menu ID : 1 (0x1)<br>
Format : EIA-708<br>
Muxing mode : A/53 / DTVCC Transport<br>
Muxing mode, more info : Muxed in Video #1<br>
Duration : 39 min 21 s<br>
Bit rate mode : Constant<br>
Stream size : 0.00 Byte (0%)</div>
</div><br>
<div class="bbCodeBlock bbCodeVfcHH HiddenContent">
<div class="attribution type">Hidden Content:</div>
<blockquote>You must either reply or click 'Like' to see the hidden information contained here.</blockquote>
</div></div>
<div class="messageTextEndMarker">&nbsp;</div>
</blockquote>
</article>]]></description>
                <author><![CDATA[ilya2129]]></author>
                </item>

                
                <item>
                <title><![CDATA[【Interviews / TV shows / Others】HDTV - The Last Last Late Late Show With James Corden Carpool Karaoke Special HDTV MPEG2 1080i DD5.1-ilya2129]]></title>
                <link><![CDATA[https://sharemania.us/threads/the-last-last-late-late-show-with-james-corden-carpool-karaoke-special-hdtv-mpeg2-1080i-dd5-1-ilya2129.219901/]]></link>
                <description><![CDATA[<article>
<blockquote class="messageText SelectQuoteContainer ugc baseHtml">
<div style="text-align: center"><img src="https://i.postimg.cc/3RHC6WCB/rutrackerposterpng.png" class="bbCodeImage LbImage" alt="[​IMG]" data-url="https://i.postimg.cc/3RHC6WCB/rutrackerposterpng.png" style=""><br>
<br>
<a href="https://postimg.cc/z3gy3mJ7" target="_blank" class="externalLink" rel="nofollow"><img src="https://i.postimg.cc/z3gy3mJ7/vlcsnap-2023-04-28-10h15m13s365.png" class="bbCodeImage LbImage" alt="[​IMG]" data-url="https://i.postimg.cc/z3gy3mJ7/vlcsnap-2023-04-28-10h15m13s365.png"></a> <a href="https://postimg.cc/SYfq8f1S" target="_blank" class="externalLink" rel="nofollow"><img src="https://i.postimg.cc/SYfq8f1S/vlcsnap-2023-04-28-10h15m17s159.png" class="bbCodeImage LbImage" alt="[​IMG]" data-url="https://i.postimg.cc/SYfq8f1S/vlcsnap-2023-04-28-10h15m17s159.png"></a> <a href="https://postimg.cc/k687Mmxt" target="_blank" class="externalLink" rel="nofollow"><img src="https://i.postimg.cc/k687Mmxt/vlcsnap-2023-04-28-10h15m19s925.png" class="bbCodeImage LbImage" alt="[​IMG]" data-url="https://i.postimg.cc/k687Mmxt/vlcsnap-2023-04-28-10h15m19s925.png"></a> <a href="https://postimg.cc/FYWrDGr1" target="_blank" class="externalLink" rel="nofollow"><img src="https://i.postimg.cc/FYWrDGr1/vlcsnap-2023-04-28-10h15m22s146.png" class="bbCodeImage LbImage" alt="[​IMG]" data-url="https://i.postimg.cc/FYWrDGr1/vlcsnap-2023-04-28-10h15m22s146.png"></a> <a href="https://postimg.cc/V5qz3zfx" target="_blank" class="externalLink" rel="nofollow"><img src="https://i.postimg.cc/V5qz3zfx/vlcsnap-2023-04-28-10h15m25s315.png" class="bbCodeImage LbImage" alt="[​IMG]" data-url="https://i.postimg.cc/V5qz3zfx/vlcsnap-2023-04-28-10h15m25s315.png"></a> <a href="https://postimg.cc/GHjhsd6F" target="_blank" class="externalLink" rel="nofollow"><img src="https://i.postimg.cc/GHjhsd6F/vlcsnap-2023-04-28-10h15m28s167.png" class="bbCodeImage LbImage" alt="[​IMG]" data-url="https://i.postimg.cc/GHjhsd6F/vlcsnap-2023-04-28-10h15m28s167.png"></a> <br>
<br>
<div class="ToggleTriggerAnchor bbCodeSpoilerContainer">
<button type="button" class="button bbCodeSpoilerButton ToggleTrigger Tooltip JsOnly" data-target="> .SpoilerTarget"><span>Spoiler: <span class="SpoilerTitle">Mediainfo</span></span></button>
<div class="SpoilerTarget bbCodeSpoilerText">General<br>
ID : 1 (0x1)<br>
Complete name : D:\The Last Last Late Late Show With James Corden Carpool Karaoke Special HDTV MPEG2 1080i DD5.1-ilya2129.ts<br>
Format : MPEG-TS<br>
File size : 3.17 GiB<br>
Duration : 42 min 39 s<br>
Overall bit rate mode : Variable<br>
Overall bit rate : 10.6 Mb/s<br>
Frame rate : 29.970 FPS<br>
Movie name : So Help Me Todd<br>
Law rating : TV-14 (DL)<br>
<br>
Video<br>
ID : 302 (0x12E)<br>
Menu ID : 1 (0x1)<br>
Format : MPEG Video<br>
Format version : Version 2<br>
Format profile : Main@High<br>
Format settings : CustomMatrix / BVOP<br>
Format settings, BVOP : Yes<br>
Format settings, Matrix : Custom<br>
Format settings, GOP : Variable<br>
Format settings, picture structure : Frame<br>
Codec ID  : 2<br>
Duration : 42 min 40 s<br>
Bit rate mode : Variable<br>
Bit rate : 9 518 kb/s<br>
Maximum bit rate : 17.6 Mb/s<br>
Width : 1 920 pixels<br>
Height : 1 080 pixels<br>
Display aspect ratio : 16:9<br>
Active Format Description : Full frame 16:9 image<br>
Frame rate : 29.970 (30000/1001) FPS<br>
Color space : YUV<br>
Chroma subsampling : 4:2:0<br>
Bit depth : 8 bits<br>
Scan type : Interlaced<br>
Scan order : Top Field First<br>
Compression mode : Lossy<br>
Bits/(Pixel*Frame) : 0.153<br>
Time code of first frame : 10:22:37;20<br>
Time code source : Group of pictures header<br>
GOP, Open/Closed : Open<br>
GOP, Open/Closed of first frame : Closed<br>
Stream size : 2.84 GiB (90%)<br>
<br>
Audio #1<br>
ID : 303 (0x12F)<br>
Menu ID : 1 (0x1)<br>
Format : AC-3<br>
Format/Info : Audio Coding 3<br>
Commercial name : Dolby Digital<br>
Codec ID : 129<br>
Duration : 42 min 40 s<br>
Bit rate mode : Constant<br>
Bit rate : 384 kb/s<br>
Channel(s) : 6 channels<br>
Channel layout : L R C LFE Ls Rs<br>
Sampling rate : 48.0 kHz<br>
Frame rate : 31.250 FPS (1536 SPF)<br>
Compression mode : Lossy<br>
Delay relative to video : 10 ms<br>
Stream size : 117 MiB (4%)<br>
Language : English<br>
Service kind : Complete Main<br>
<br>
Audio #2<br>
ID : 304 (0x130)<br>
Menu ID : 1 (0x1)<br>
Format : AC-3<br>
Format/Info : Audio Coding 3<br>
Commercial name : Dolby Digital<br>
Codec ID : 129<br>
Duration : 42 min 40 s<br>
Bit rate mode : Constant<br>
Bit rate : 192 kb/s<br>
Channel(s) : 2 channels<br>
Channel layout : L R<br>
Sampling rate : 48.0 kHz<br>
Frame rate : 31.250 FPS (1536 SPF)<br>
Compression mode : Lossy<br>
Delay relative to video : 10 ms<br>
Stream size : 58.6 MiB (2%)<br>
Language : Spanish<br>
Service kind : Complete Main<br>
<br>
Text #1<br>
ID : 302 (0x12E)-CC1<br>
Menu ID : 1 (0x1)<br>
Format : EIA-608<br>
Muxing mode : A/53 / DTVCC Transport<br>
Muxing mode, more info : Muxed in Video #1<br>
Duration : 42 min 40 s<br>
Duration of the visible content : 42 min 30 s<br>
Start time (commands) : 5 s 150 ms<br>
Start time : 8 s 721 ms<br>
End time  : 42 min 39 s<br>
Bit rate mode : Constant<br>
Stream size : 0.00 Byte (0%)<br>
Type of the first event : RollUp<br>
<br>
Text #2<br>
ID : 302 (0x12E)-CC3<br>
Menu ID : 1 (0x1)<br>
Format : EIA-608<br>
Muxing mode : A/53 / DTVCC Transport<br>
Muxing mode, more info : Muxed in Video #1<br>
Duration : 42 min 40 s<br>
Start time (commands) : 15 s 694 ms<br>
End time : 42 min 39 s<br>
Bit rate mode : Constant<br>
Stream size : 0.00 Byte (0%)<br>
Type of the first event : PaintOn<br>
<br>
Text #3<br>
ID : 302 (0x12E)-1<br>
Menu ID : 1 (0x1)<br>
Format : EIA-708<br>
Muxing mode : A/53 / DTVCC Transport<br>
Muxing mode, more info : Muxed in Video #1<br>
Duration : 42 min 40 s<br>
Bit rate mode : Constant<br>
Stream size : 0.00 Byte (0%)<br>
<br>
Text #4<br>
ID : 302 (0x12E)-2<br>
Menu ID : 1 (0x1)<br>
Format : EIA-708<br>
Muxing mode : A/53 / DTVCC Transport<br>
Muxing mode, more info : Muxed in Video #1<br>
Duration : 42 min 40 s<br>
Bit rate mode : Constant<br>
Stream size : 0.00 Byte (0%)</div>
</div><br>
<div class="bbCodeBlock bbCodeVfcHH HiddenContent">
<div class="attribution type">Hidden Content:</div>
<blockquote>You must either reply or click 'Like' to see the hidden information contained here.</blockquote>
</div></div>
<div class="messageTextEndMarker">&nbsp;</div>
</blockquote>
</article>]]></description>
                <author><![CDATA[ilya2129]]></author>
                </item>

                </channel></rss>